<svg xmlns="http://www.w3.org/2000/svg" xmlns:xlink="http://www.w3.org/1999/xlink" width="100" height="100" viewBox="0 0 100 100">
  <defs>
    <clipPath id="clip-path">
      <rect id="background-image" width="100" height="100" transform="translate(0 -0.302)"/>
    </clipPath>
    <clipPath id="clip-path-2">
      <rect id="Rectangle_5" data-name="Rectangle 5" width="25" height="25" transform="translate(12.005 12.996)" fill="#fff" stroke="#fff" stroke-width="1"/>
    </clipPath>
    <clipPath id="clip-path-3">
      <rect id="Rectangle_10" data-name="Rectangle 10" width="25" height="25" transform="translate(62.001 13)" fill="#fff" stroke="#fff" stroke-width="1"/>
    </clipPath>
    <clipPath id="clip-path-4">
      <rect id="Rectangle_9" data-name="Rectangle 9" width="19.886" height="19.886" transform="translate(61.99 62.018)" fill="#fff" stroke="#fff" stroke-width="1"/>
    </clipPath>
    <clipPath id="clip-path-5">
      <rect id="Rectangle_8" data-name="Rectangle 8" width="22.121" height="22.121" transform="translate(12.041 62.017)" fill="#fff" stroke="#fff" stroke-width="1"/>
    </clipPath>
  </defs>
  <g id="background" transform="translate(0 0.302)" clip-path="url(#clip-path)">
    <g id="group" transform="translate(0 -0.302)" opacity="0.2">
      <rect id="Rectangle_1" data-name="Rectangle 1" width="51" height="49" transform="translate(49 51)" fill="rgba(255,255,255,0.57)"/>
      <rect id="Rectangle_2" data-name="Rectangle 2" width="49" height="51" fill="rgba(255,255,255,0.57)"/>
      <g id="Group_5" data-name="Group 5">
        <g id="Mask_Group_1" data-name="Mask Group 1" transform="translate(-3.31 3.659) rotate(-8)" clip-path="url(#clip-path-2)">
          <path id="__TEMP__SVG__" d="M13.2,16.533a5.308,5.308,0,0,1-1.39,3.677A5.99,5.99,0,0,1,8.2,22.11v2.442A.43.43,0,0,1,7.758,25H5.874a.453.453,0,0,1-.447-.447V22.114a8.792,8.792,0,0,1-1.779-.433,9.474,9.474,0,0,1-1.417-.62,9.176,9.176,0,0,1-1.033-.67,8.211,8.211,0,0,1-.649-.523A3.2,3.2,0,0,1,.3,19.617a.423.423,0,0,1-.028-.572l1.437-1.884a.434.434,0,0,1,.321-.167.346.346,0,0,1,.335.126l.028.028a7.283,7.283,0,0,0,3.391,1.744A4.864,4.864,0,0,0,6.822,19a3.384,3.384,0,0,0,1.988-.6,1.953,1.953,0,0,0,.858-1.7,1.415,1.415,0,0,0-.209-.74,2.616,2.616,0,0,0-.467-.586,3.813,3.813,0,0,0-.816-.523q-.558-.285-.921-.447T6.139,13.95q-.544-.223-.858-.349t-.858-.369q-.544-.244-.872-.433t-.788-.5a4.905,4.905,0,0,1-.747-.593,8.69,8.69,0,0,1-.607-.683,3.418,3.418,0,0,1-.5-.809,5.553,5.553,0,0,1-.293-.928A4.888,4.888,0,0,1,.5,8.2,4.772,4.772,0,0,1,1.87,4.828a6.381,6.381,0,0,1,3.558-1.87V.447A.429.429,0,0,1,5.56.133.429.429,0,0,1,5.874,0H7.758A.43.43,0,0,1,8.2.447V2.9a7.8,7.8,0,0,1,1.542.321,8.876,8.876,0,0,1,1.214.467,6.763,6.763,0,0,1,.885.523q.418.292.544.4a2.293,2.293,0,0,1,.209.2.4.4,0,0,1,.069.53l-1.13,2.037a.38.38,0,0,1-.321.223.444.444,0,0,1-.376-.1q-.042-.042-.2-.167t-.544-.369a7.264,7.264,0,0,0-.816-.447,6.166,6.166,0,0,0-1.04-.363A4.7,4.7,0,0,0,7.046,6a3.627,3.627,0,0,0-2.163.6,1.875,1.875,0,0,0-.718,2.218,1.573,1.573,0,0,0,.412.579,6.094,6.094,0,0,0,.551.46,4.954,4.954,0,0,0,.781.433q.523.244.844.376t.976.383q.74.279,1.13.44t1.061.488a8.372,8.372,0,0,1,1.054.593,9.041,9.041,0,0,1,.865.7,3.586,3.586,0,0,1,.74.886,5.058,5.058,0,0,1,.438,1.067,4.638,4.638,0,0,1,.181,1.311Z" transform="translate(17.817 12.996)" fill="#fff"/>
        </g>
        <g id="Mask_Group_2" data-name="Mask Group 2" transform="translate(9.138 -18.413) rotate(15.009)" clip-path="url(#clip-path-3)">
          <g id="__TEMP__SVG__2" data-name="__TEMP__SVG__" transform="translate(62.014 13.022)">
            <path id="Path_1" data-name="Path 1" d="M24.847,12.088a1.95,1.95,0,0,0-.468-.8,1.3,1.3,0,0,0-.615-.371,3.054,3.054,0,0,1,.3.618,2.53,2.53,0,0,1,.161.729,2.782,2.782,0,0,1,0,.661,1.567,1.567,0,0,0-.225-.45,1.861,1.861,0,0,0-.749-.6,1.463,1.463,0,0,0-1.864.6,1.877,1.877,0,0,0-.187.415,10.426,10.426,0,0,0-8.954-5.1q-.29,0-.575.015a12.816,12.816,0,0,0-3.48.488c-.1-.678-.986-2.051-5.073-2.051l1.248,3.915a8.122,8.122,0,0,0-1.945,2.285L0,12.478s-.266,6.239,1.56,6.239H2.4A8.229,8.229,0,0,0,4.656,21.2l.024,3.761H6.364c2.043,0,2.995,0,2.995-1.169v-.609a12.877,12.877,0,0,0,4.759-.012l-.08.621c0,1.17.967,1.17,3.026,1.17h1.653V21.229a7.471,7.471,0,0,0,2.968-4.238.589.589,0,0,1,.268-.037,2.3,2.3,0,0,0,.268-.015A2.682,2.682,0,0,0,23.28,16.5a2.573,2.573,0,0,0,.92-1.2,3.065,3.065,0,0,0,.1-.455V14.83a2.88,2.88,0,0,0,.654-1.483,2.77,2.77,0,0,0-.112-1.282Zm-19.372,0a1.17,1.17,0,1,1-1.142,1.17,1.17,1.17,0,0,1,1.142-1.17Zm3.7-1.17a.783.783,0,0,1-.934-.385A.609.609,0,0,1,8.7,9.748,12.515,12.515,0,0,1,11.832,9.4h.157a12.841,12.841,0,0,1,3.04.362.612.612,0,0,1,.379.766.754.754,0,0,1-.539.385H14.63a11.227,11.227,0,0,0-2.66-.313h-.139a11.476,11.476,0,0,0-2.739.329Zm13.57,4.57a1.809,1.809,0,0,1-.706.311h-.2v-.687a1.55,1.55,0,0,0,.936.312H22.8Zm.125-1.061a.686.686,0,0,1-.716-.387.947.947,0,0,1,0-.882.518.518,0,0,1,.671-.15.749.749,0,0,1,.48.7h0a2.273,2.273,0,0,1,0,.652,1.965,1.965,0,0,1-.44.034Z" transform="translate(0 -3)" fill="#fff"/>
          </g>
        </g>
        <g id="Mask_Group_3" data-name="Mask Group 3" transform="translate(20.598 -11.775) rotate(13)" clip-path="url(#clip-path-4)">
          <path id="__TEMP__SVG__3" data-name="__TEMP__SVG__" d="M13.786,16.653,14.28,18.9a.413.413,0,0,1-.043.318.448.448,0,0,1-.24.2l-.071.014a.673.673,0,0,1-.148.049q-.092.021-.226.064t-.3.078l-.36.071q-.19.036-.424.071T12,19.829q-.24.029-.515.043t-.544.014a9.4,9.4,0,0,1-5.777-1.843A9.126,9.126,0,0,1,1.8,13.078H.452a.434.434,0,0,1-.318-.134A.434.434,0,0,1,0,12.627v-1.6a.434.434,0,0,1,.134-.318.434.434,0,0,1,.318-.134h.933q-.028-.8.014-1.483H.452A.435.435,0,0,1,0,8.644V7.034a.435.435,0,0,1,.452-.452H1.836a9.2,9.2,0,0,1,3.44-4.774A9.394,9.394,0,0,1,10.933,0a11.261,11.261,0,0,1,2.74.325.538.538,0,0,1,.282.212A.469.469,0,0,1,14,.876l-.61,2.246a.416.416,0,0,1-.2.276.4.4,0,0,1-.339.035L12.8,3.418q-.056-.014-.162-.035l-.247-.05-.318-.049L11.7,3.242l-.409-.035-.417-.014a5.794,5.794,0,0,0-3.192.9A5.585,5.585,0,0,0,5.565,6.582h6.61a.463.463,0,0,1,.452.537l-.339,1.61a.413.413,0,0,1-.452.367H4.944a12.659,12.659,0,0,0,0,1.483h6.483a.44.44,0,0,1,.353.17.458.458,0,0,1,.085.381l-.339,1.582a.457.457,0,0,1-.438.367H5.622A5.689,5.689,0,0,0,7.733,15.7a5.627,5.627,0,0,0,3.228.966q.254,0,.508-.021t.473-.049q.219-.028.417-.064t.346-.071l.261-.064.17-.043.071-.028a.423.423,0,0,1,.367.028.433.433,0,0,1,.212.3Z" transform="translate(64.787 62.018)" fill="#fff"/>
        </g>
        <g id="Mask_Group_4" data-name="Mask Group 4" transform="translate(-13.292 7.842) rotate(-12.007)" clip-path="url(#clip-path-5)">
          <path id="__TEMP__SVG__4" data-name="__TEMP__SVG__" d="M21.481,2.027a10.241,10.241,0,0,0-4.026-.776C13.2,1.25,8.937,3.407,4.677,3.407a10.5,10.5,0,0,1-3.2-.475,1.179,1.179,0,0,0-.358-.056A1.1,1.1,0,0,0,0,3.976V14.948a1.1,1.1,0,0,0,.652,1.019,10.231,10.231,0,0,0,4.026.777c4.259,0,8.519-2.156,12.778-2.156a10.5,10.5,0,0,1,3.2.475,1.179,1.179,0,0,0,.358.056,1.1,1.1,0,0,0,1.115-1.1V3.046a1.1,1.1,0,0,0-.652-1.019ZM1.66,4.716a11.982,11.982,0,0,0,2.169.309A2.216,2.216,0,0,1,1.66,6.808V4.717Zm0,9.856V12.919a2.213,2.213,0,0,1,2.2,2.123,8.368,8.368,0,0,1-2.2-.471Zm9.406-2.255A3.081,3.081,0,0,1,8.3,9a3.082,3.082,0,0,1,2.767-3.32A3.082,3.082,0,0,1,13.833,9a3.081,3.081,0,0,1-2.767,3.317Zm9.406.961a11.937,11.937,0,0,0-1.878-.292,2.208,2.208,0,0,1,1.878-1.7Zm0-8.165a2.208,2.208,0,0,1-1.93-2.128,8.3,8.3,0,0,1,1.93.438Z" transform="translate(12.041 64.087)" fill="#fff"/>
        </g>
      </g>
    </g>
  </g>
</svg>
